# xmcd
#
# Track frame offsets:
#	150
#	15623
#	29898
#	48009
#	65239
#	79728
#	97034
#	112893
#	124410
#	136793
#
# Disc length: 2034 seconds
# Revision: 0
# Processed by: cddbd v1.5.2PL0 Copyright (c) Steve Scherf et al.
# Submitted via: dBpowerAMP V12.0
#
DISCID=8707f00a
DTITLE=Chip Boyd - 110%
DYEAR=1900
DGENRE=Country
TTITLE0=110% Pure Blue Heartache
TTITLE1=I Know What Lonely Looks Like
TTITLE2=Miracles
TTITLE3=Talk Is Cheap
TTITLE4=Wonder Love
TTITLE5=Things I Hold On To
TTITLE6=What I Believe
TTITLE7=Something Worth Singing About
TTITLE8=Between A Rock And A Heartache
TTITLE9=You Can Say A Heartfull With Goodbye
EXTD=
EXTT0=
EXTT1=
EXTT2=
EXTT3=
EXTT4=
EXTT5=
EXTT6=
EXTT7=
EXTT8=
EXTT9=
PLAYORDER=
